<svg xmlns="http://www.w3.org/2000/svg" viewBox="0 0 426.02 497.25"><defs><style>.a{fill:#fff;}.b{fill:#ed1c24;}</style></defs><title>marvin-original</title><rect class="a" x="106.43" y="146.9" width="207.57" height="185"/><path class="b" d="M355.05,122.9c-18.17,0-36.34-.06-54.5.06-3.38,0-5.4-.86-7-4.13a47.89,47.89,0,0,0-27-24.63c-2.81-1.06-17.82-3.13-20.37-3.14-9.67,0-19.34-.18-29,.07-3.77.1-17.31,2.05-19.74,3-12.37,4.63-22,12.48-27.58,24.61-1.5,3.24-3.44,4.3-6.9,4.27-16.67-.15-33.33-.08-50-.06-1.93,0-3.85.18-6.36.3l.26,249.92v6H361.49v-5.85l.09-250.35ZM265.63,347.31s-.52-2.7-.87-5.24c-1.65-11.86-3.26-23.73-4.92-35.58-.17-1.25-.56-2.46-1.1-4.8-3.74,7.46-7,13.95-10.24,20.45-3.77,7.59-7.45,15.22-11.28,22.77-.62,1.2-2.8,5.5-2.8,5.5s-2.61-4.28-3.26-5.56c-6.47-12.76-12.8-25.59-19.18-38.39-.73-1.46-1.53-2.89-2.94-5.53-2.25,16.43-4.34,31.63-6.43,46.89h-8.12c3.35-23.55,6.65-47.13,9.95-70.3.69,0,1.38,0,2,0,9.1,18.28,18.21,36.55,27.81,55.8,9.4-19.09,18.36-37.29,27.33-55.49l1.92.11c4,23.06,6.76,46.31,10.2,69.43C268.93,347.44,265.63,347.31,265.63,347.31Zm61.5-98.4s-123.23-.07-184.85-.08c-2.42,0-5.13.58-5.11-3.46.08-21.31,0-42.61,0-64.53H331.77c.14,1.64.37,3.08.37,4.52,0,19.49.35,44.11.54,63.59Z" transform="translate(-22 -23.99)"/><path class="b" d="M151.32,214.38a21.72,21.72,0,0,1,43.43.5,21.72,21.72,0,1,1-43.43-.5Z" transform="translate(-22 -23.99)"/><path class="b" d="M317.45,215a21.73,21.73,0,1,1-21.09-22.06A21.5,21.5,0,0,1,317.45,215Z" transform="translate(-22 -23.99)"/><path class="b" d="M336.31,277.9c-3.65-18.22,26.68-25,27.07-25.2,20.15-10.25,37.27-23.89,48.62-43.88,5.26-9.26,8.68-19.13,8.53-29.9a6.52,6.52,0,0,0-2.93-4.81c-11-5.51-15.76-16.3-11.87-27.47a21.6,21.6,0,0,1,24.93-14.26c11.56,2.58,19.86,12.85,16.68,24.4-2.87,10.39-1.82,20.65-3.14,30.9-3.55,27.72-17.16,50.09-38.77,67-12.22,9.57-26.31,16.78-39.75,24.74-2.93,1.73-26.29,11.09-29.37-1.24Z" transform="translate(-22 -23.99)"/><path class="b" d="M133.72,278.18c-3.09,12.33-26.44,3-29.37,1.24-13.44-8-27.53-15.17-39.75-24.74-21.62-16.91-35.23-39.28-38.78-67-1.31-10.25-.26-20.51-3.13-30.9-3.18-11.55,5.12-21.82,16.67-24.4a21.59,21.59,0,0,1,24.93,14.26c3.9,11.17-.91,22-11.86,27.47a6.49,6.49,0,0,0-2.93,4.81c-.16,10.77,3.27,20.64,8.53,29.9,11.35,20,28.47,33.63,48.62,43.88.39.2,30.71,7,27.07,25.2Z" transform="translate(-22 -23.99)"/><path class="b" d="M283.76,521.19V393.92h38.13l0,127.31S294.59,521.19,283.76,521.19Z" transform="translate(-22 -23.99)"/><path class="b" d="M185,394.16V520.84H147.22V394.16Z" transform="translate(-22 -23.99)"/><path class="b" d="M212,87c-.78-14.13-1.78-28.26-2.83-42.37-.21-2.79-.31-4.76,2.8-6.48,4-2.23,4.22-7.77,1.16-11.35a8.3,8.3,0,0,0-12-.27c-3.31,3.35-3.24,8.7.84,11.25,2.9,1.82,3.06,3.94,2.88,6.67-1,15.12-2.15,30.24-3,45.37-.72,4.61-.38,8.76.53,10.61,1.52,3.12,5.75,2.25,8.75.5C213.58,98,212.23,90.5,212,87Z" transform="translate(-22 -23.99)"/><path class="b" d="M262.06,89.26c-.81-15-1.89-29.92-3-44.87-.2-2.63-.18-4.43,2.39-6.27,3.61-2.6,3.19-8.91-.18-12a8.16,8.16,0,0,0-11.63.64c-3.13,3.53-2.41,8.11,1.22,11.45,1.43,1.31,2.8,3.69,2.71,5.51-.76,14.8-2,29.58-2.82,44.38-.2,3.39-1.33,10.85,2.18,12.77a7.92,7.92,0,0,0,5.75.5C263.65,98.13,262.24,92.54,262.06,89.26Z" transform="translate(-22 -23.99)"/></svg>